<svg width="18" height="18" viewBox="0 0 18 18" fill="none" xmlns="http://www.w3.org/2000/svg">
<g id="material-symbols-light:order-approve-outline-sharp">
<path id="Vector" d="M13.0282 14.8702L15.1583 12.7733L14.6887 12.303L13.0282 13.9403L12.3113 13.209L11.841 13.683L13.0282 14.8702ZM5.0775 6.5475H12.924V5.7975H5.07675L5.0775 6.5475ZM13.5 16.5863C12.6645 16.5863 11.9555 16.2952 11.373 15.7133C10.7905 15.1313 10.4995 14.4222 10.5 13.5863C10.5 12.7513 10.791 12.0425 11.373 11.46C11.955 10.8775 12.664 10.5862 13.5 10.5862C14.3355 10.5862 15.0445 10.8775 15.627 11.46C16.2095 12.0425 16.5005 12.7513 16.5 13.5863C16.5 14.4222 16.209 15.1313 15.627 15.7133C15.044 16.2952 14.335 16.5863 13.5 16.5863ZM3 15.5775V3H15V8.67C14.878 8.625 14.7567 8.5865 14.6362 8.5545C14.5162 8.5225 14.3875 8.4975 14.25 8.4795V3.75H3.75V14.2875H8.508C8.542 14.4925 8.586 14.693 8.64 14.889C8.6945 15.085 8.77025 15.272 8.86725 15.45L8.841 15.4762L7.9905 14.856L6.981 15.5767L5.9715 14.856L4.96125 15.5767L3.95175 14.856L3 15.5775ZM5.0775 12.2025H8.60925C8.63725 12.065 8.67175 11.9362 8.71275 11.8162C8.75425 11.6962 8.8025 11.575 8.8575 11.4525H5.0775V12.2025ZM5.0775 9.37575H10.56C10.805 9.18225 11.0675 9.021 11.3475 8.892C11.6275 8.7625 11.9268 8.67375 12.2452 8.62575H5.07675L5.0775 9.37575Z" fill="white"/>
</g>
</svg>
