<svg width="174" height="118" viewBox="0 0 174 118" fill="none" xmlns="http://www.w3.org/2000/svg">
<path d="M160.083 6.50441C159.903 6.17612 159.624 5.91088 159.286 5.74498C158.948 5.57907 158.566 5.5206 158.192 5.57759C157.75 5.24385 157.208 5.06697 156.652 5.07547C156.096 5.08397 155.559 5.27737 155.127 5.62447C154.798 5.43397 154.425 5.32968 154.043 5.32148C153.662 5.31328 153.285 5.40143 152.947 5.57759C152.613 5.76291 152.331 6.02838 152.128 6.34956C151.924 6.67074 151.806 7.03732 151.783 7.4156C151.399 7.36087 151.008 7.42389 150.661 7.59614C150.315 7.76839 150.03 8.04158 149.845 8.37886C149.673 8.7233 149.611 9.11115 149.666 9.49132C149.722 9.87148 149.893 10.2261 150.156 10.5084C149.739 10.646 149.387 10.9306 149.168 11.308C148.95 11.6854 148.879 12.1292 148.971 12.5548C149.062 12.9803 149.308 13.3577 149.663 13.6151C150.017 13.8725 150.455 13.9917 150.893 13.9502L159.74 8.57151C160.006 8.304 160.182 7.96173 160.243 7.59164C160.304 7.22156 160.248 6.84177 160.083 6.50441Z" fill="#263238"/>
<path d="M150.637 14.193C150.79 12.3201 151.651 10.573 153.049 9.29938C154.446 8.0258 156.277 7.31913 158.178 7.32004H158.567C162.78 7.57517 164.097 11.4386 163.718 15.6145L163.296 31.1568L156.587 36.8843L154.612 32.6252L154.139 28.4597C154.139 28.4597 150.094 27.8193 150.057 23.7736C150.041 21.8262 150.342 17.817 150.637 14.193Z" fill="#FFBF9D"/>
<path d="M154.104 28.4281C155.985 28.4328 157.828 27.9013 159.412 26.8973C159.412 26.8973 158.301 29.9017 154.262 29.5268L154.104 28.4281Z" fill="#FF9A6C"/>
<path d="M151.795 17.9279C151.793 18.0774 151.851 18.2216 151.955 18.3302C152.059 18.4387 152.202 18.5032 152.353 18.5099C152.427 18.5155 152.501 18.5064 152.572 18.4832C152.642 18.4599 152.707 18.423 152.762 18.3745C152.818 18.326 152.863 18.267 152.895 18.201C152.927 18.135 152.945 18.0634 152.948 17.9903C152.953 17.8409 152.897 17.696 152.793 17.587C152.69 17.478 152.547 17.4137 152.395 17.4083C152.321 17.4019 152.246 17.4105 152.175 17.4334C152.104 17.4563 152.039 17.4932 151.983 17.5417C151.927 17.5903 151.881 17.6495 151.849 17.7159C151.817 17.7822 151.798 17.8544 151.795 17.9279Z" fill="#263238"/>
<path d="M151.451 16.3691C151.525 16.447 151.978 16.1249 152.583 16.1301C153.189 16.1353 153.663 16.4418 153.731 16.3691C153.8 16.2963 153.689 16.1976 153.494 16.0573C153.226 15.8705 152.906 15.7706 152.578 15.7715C152.253 15.7685 151.935 15.8687 151.672 16.0573C151.483 16.2028 151.42 16.3379 151.451 16.3691Z" fill="#263238"/>
<path d="M157.131 18.2064C157.127 18.3558 157.183 18.5007 157.286 18.6097C157.39 18.7187 157.533 18.7829 157.684 18.7884C157.758 18.794 157.833 18.785 157.903 18.7618C157.974 18.7386 158.039 18.7017 158.095 18.6533C158.151 18.6049 158.197 18.5459 158.229 18.4799C158.262 18.4139 158.28 18.3421 158.284 18.2688C158.286 18.1193 158.229 17.9751 158.124 17.8665C158.02 17.758 157.877 17.6935 157.726 17.6868C157.652 17.6812 157.578 17.6903 157.508 17.7135C157.437 17.7368 157.373 17.7737 157.317 17.8222C157.262 17.8707 157.216 17.9297 157.184 17.9957C157.153 18.0617 157.134 18.1334 157.131 18.2064Z" fill="#263238"/>
<path d="M157.402 16.3071C157.476 16.3798 157.929 16.0629 158.534 16.0629C159.14 16.0629 159.614 16.3798 159.683 16.3019C159.751 16.2239 159.64 16.1356 159.446 15.9901C159.178 15.8033 158.857 15.7034 158.529 15.7044C158.207 15.7066 157.892 15.8064 157.629 15.9901C157.434 16.1356 157.371 16.2707 157.402 16.3071Z" fill="#263238"/>
<path d="M155.337 20.8845C155.011 20.7793 154.673 20.718 154.331 20.7023C154.173 20.7023 154.02 20.6502 153.994 20.5409C153.983 20.3795 154.019 20.2184 154.099 20.0774L154.573 18.8747C155.006 17.8619 155.358 16.8173 155.627 15.7506C155.108 16.7321 154.668 17.7523 154.31 18.8018C154.147 19.2235 153.999 19.6244 153.852 20.0097C153.754 20.2009 153.724 20.4193 153.768 20.6294C153.791 20.6856 153.826 20.7359 153.872 20.7765C153.918 20.817 153.972 20.8469 154.031 20.8637C154.119 20.8872 154.209 20.8995 154.3 20.9001C154.644 20.9407 154.993 20.9355 155.337 20.8845Z" fill="#263238"/>
<path d="M157.19 21.3165C157.09 21.3165 157.085 21.983 156.505 22.4568C155.926 22.9306 155.205 22.8577 155.199 22.9514C155.194 23.0452 155.363 23.0816 155.663 23.092C156.06 23.0987 156.446 22.9659 156.753 22.7171C157.044 22.477 157.233 22.1364 157.279 21.7643C157.295 21.4831 157.222 21.3165 157.19 21.3165Z" fill="#263238"/>
<path d="M157.404 14.5357C157.478 14.6968 158.015 14.5357 158.663 14.5669C159.31 14.5981 159.858 14.7176 159.927 14.5669C159.953 14.4941 159.848 14.3487 159.616 14.2084C159.322 14.0435 158.99 13.9559 158.652 13.9538C158.318 13.9455 157.988 14.0282 157.699 14.1928C157.473 14.3175 157.373 14.463 157.404 14.5357Z" fill="#263238"/>
<path d="M151.601 14.676C151.701 14.8215 152.128 14.7123 152.655 14.7539C153.181 14.7955 153.592 14.9254 153.708 14.7903C153.824 14.6552 153.708 14.5772 153.518 14.4266C153.279 14.244 152.988 14.1387 152.686 14.1252C152.385 14.1045 152.085 14.1772 151.828 14.333C151.633 14.4629 151.559 14.6032 151.601 14.676Z" fill="#263238"/>
<path d="M151.031 12.3501C151.031 12.3501 152.084 9.83526 153.332 9.22606C154.812 8.52314 155.439 10.1373 156.855 9.74674C158.272 9.35623 159.683 8.67934 161.121 9.74674C162.701 10.9391 161.953 11.7722 162.042 13.5581C162.416 20.8008 163.738 22.8523 164.149 19.4418C164.191 19.0669 165.234 18.7754 165.397 17.1977C165.602 15.1514 165.692 12.6626 165.234 11.2099C164.855 9.98105 164.154 9.12713 162.895 8.20032C160.915 6.71637 158.182 6.67993 156.329 6.85697C154.475 7.034 150.867 9.19482 151.031 12.3501Z" fill="#263238"/>
<path d="M163.36 19.381C163.366 19.2341 163.401 19.0897 163.464 18.9567C163.528 18.8238 163.618 18.7049 163.729 18.6075C163.841 18.5101 163.971 18.4361 164.112 18.39C164.253 18.344 164.402 18.3268 164.551 18.3396C165.304 18.4125 166.13 18.8603 166.088 20.3963C165.988 23.1455 163.234 22.4791 163.229 22.401C163.223 22.3229 163.308 20.5317 163.36 19.381Z" fill="#FFBF9D"/>
<path d="M163.864 21.3751C163.864 21.3751 163.912 21.4115 163.996 21.4532C164.111 21.4978 164.239 21.4978 164.354 21.4532C164.536 21.3457 164.686 21.193 164.79 21.0103C164.893 20.8276 164.946 20.6212 164.944 20.4118C164.961 20.1756 164.923 19.9388 164.833 19.7193C164.81 19.6332 164.766 19.5539 164.706 19.4878C164.646 19.4217 164.57 19.3708 164.486 19.3392C164.43 19.3234 164.371 19.3272 164.318 19.35C164.265 19.3728 164.222 19.4132 164.196 19.4641C164.154 19.537 164.17 19.5943 164.154 19.5995C164.138 19.6047 164.096 19.5475 164.122 19.4381C164.14 19.3695 164.181 19.3089 164.238 19.2663C164.277 19.2395 164.321 19.2206 164.367 19.2107C164.413 19.2009 164.461 19.2003 164.507 19.209C164.62 19.2348 164.725 19.289 164.811 19.3666C164.896 19.4441 164.961 19.5423 164.997 19.6516C165.105 19.8937 165.154 20.1578 165.139 20.4222C165.144 20.6677 165.076 20.9093 164.943 21.1168C164.81 21.3242 164.618 21.4883 164.391 21.5885C164.316 21.6063 164.238 21.6076 164.163 21.5923C164.087 21.577 164.016 21.5455 163.954 21.5C163.87 21.4427 163.859 21.3803 163.864 21.3751Z" fill="#FF9A6C"/>
<path d="M163.834 14.0478C163.492 14.3148 163.088 14.4937 162.659 14.5685C162.444 14.6007 162.223 14.5539 162.04 14.4369C161.857 14.32 161.723 14.1409 161.664 13.9333C161.627 13.7458 161.664 13.5219 161.553 13.3709C161.443 13.2199 161.121 13.2512 160.89 13.272C160.484 13.3026 160.08 13.1932 159.747 12.9625C159.414 12.7318 159.172 12.394 159.062 12.0068C158.939 12.1432 158.768 12.2286 158.583 12.2459C158.399 12.2633 158.215 12.2114 158.067 12.1005C157.78 11.8663 157.527 11.5948 157.314 11.2934C157.207 11.1438 157.065 11.0224 156.9 10.9398C156.734 10.8572 156.551 10.8159 156.366 10.8196C156.171 10.8828 155.97 10.9264 155.766 10.9498C155.402 10.9133 155.239 10.4916 155.171 10.1323C155.102 9.77303 155.076 9.35649 154.77 9.15863C154.455 9.03304 154.104 9.02197 153.78 9.12739C153.443 9.17425 153.012 9.09615 152.927 8.76812C152.914 8.6815 152.919 8.59317 152.94 8.50826C152.962 8.42334 153.001 8.34355 153.054 8.27348C153.277 7.94286 153.606 7.69652 153.988 7.57456C154.371 7.45261 154.784 7.46221 155.16 7.6018C155.297 7.14599 155.568 6.74065 155.938 6.43719C156.308 6.13373 156.761 5.94581 157.24 5.89729C157.718 5.84876 158.2 5.94181 158.625 6.16462C159.05 6.38743 159.398 6.72998 159.626 7.14881C159.921 6.88479 160.276 6.69542 160.661 6.59695C161.046 6.49848 161.45 6.49385 161.837 6.58344C162.224 6.67304 162.584 6.8542 162.885 7.11137C163.186 7.36854 163.419 7.69406 163.565 8.06C163.905 7.97656 164.261 7.99213 164.592 8.10486C164.923 8.21759 165.214 8.42264 165.429 8.69523C165.639 8.97333 165.764 9.30497 165.789 9.65096C165.814 9.99696 165.739 10.3429 165.571 10.6478C165.828 10.7772 166.048 10.9687 166.21 11.2044C166.372 11.4402 166.471 11.7126 166.498 11.9964C166.503 12.1361 166.478 12.2752 166.423 12.404C166.368 12.5328 166.285 12.6482 166.18 12.742C166.075 12.8357 165.951 12.9057 165.815 12.9469C165.68 12.9881 165.538 12.9995 165.398 12.9804C165.497 13.207 165.513 13.4613 165.44 13.6979C165.368 13.9344 165.213 14.1378 165.003 14.2717C164.78 14.3818 164.525 14.4103 164.283 14.3522C164.041 14.294 163.828 14.153 163.681 13.9541" fill="#263238"/>
<path d="M165.614 12.9874C165.625 13.0815 165.616 13.177 165.586 13.2671C165.556 13.3571 165.506 13.4394 165.44 13.5081C165.306 13.6847 165.108 13.8025 164.887 13.8361C164.746 13.8587 164.602 13.8499 164.466 13.8102C164.329 13.7706 164.203 13.7011 164.097 13.607H164.213C164.067 13.8622 163.88 14.0925 163.66 14.2891C163.507 14.4263 163.328 14.5324 163.133 14.6015C162.955 14.6654 162.762 14.6816 162.575 14.6484C162.416 14.6365 162.262 14.5891 162.124 14.5097C161.986 14.4303 161.869 14.3211 161.78 14.1902C161.667 14.0162 161.592 13.8213 161.559 13.6174C161.54 13.5439 161.54 13.4671 161.559 13.3935C161.593 13.4597 161.62 13.5296 161.638 13.6018C161.696 13.7865 161.781 13.9619 161.89 14.1225C161.993 14.2395 162.119 14.334 162.261 14.4001C162.403 14.4662 162.557 14.5023 162.713 14.5062C162.87 14.5101 163.025 14.4817 163.17 14.4228C163.315 14.3639 163.446 14.2758 163.555 14.1641C163.762 13.9785 163.94 13.7625 164.081 13.5237L164.134 13.4456L164.202 13.5081C164.291 13.589 164.396 13.6501 164.51 13.6869C164.625 13.7238 164.746 13.7356 164.866 13.7216C165.059 13.6969 165.236 13.6045 165.366 13.4612C165.483 13.3234 165.568 13.1615 165.614 12.9874Z" fill="#455A64"/>
<path d="M160.398 6.6794C160.398 6.6794 160.33 6.67939 160.203 6.75228C160.026 6.82702 159.876 6.95209 159.771 7.11155L159.74 7.16882L159.703 7.11677C159.358 6.64871 158.897 6.27583 158.365 6.03374C158.023 5.87942 157.652 5.79783 157.275 5.79423C156.862 5.79181 156.456 5.90557 156.106 6.12226C155.827 6.28773 155.588 6.51166 155.406 6.77831C155.227 7.0319 155.115 7.32529 155.079 7.63224V7.72076L154.995 7.69472C154.607 7.59343 154.195 7.64183 153.842 7.8301C153.567 7.98268 153.346 8.21542 153.21 8.49657C153.097 8.75466 153.037 9.03275 153.036 9.31404C153.012 9.24178 153.002 9.16601 153.004 9.09014C152.999 8.87351 153.042 8.65843 153.131 8.46012C153.263 8.15262 153.492 7.89528 153.784 7.72595C153.97 7.61725 154.176 7.54611 154.39 7.51662C154.605 7.48713 154.823 7.49988 155.032 7.55414L154.942 7.61662C154.973 7.29492 155.084 6.98565 155.264 6.71583C155.459 6.43104 155.714 6.19129 156.011 6.01292C156.389 5.78149 156.825 5.66054 157.27 5.66406C157.666 5.67182 158.056 5.76417 158.413 5.93481C158.958 6.19507 159.423 6.59401 159.761 7.09072H159.687C159.807 6.92311 159.979 6.79879 160.177 6.73666C160.244 6.69827 160.32 6.67849 160.398 6.6794Z" fill="#455A64"/>
<path d="M163.584 26.7258L163.9 28.8085L152.23 34.7911L152.994 31.4223C154.089 30.4732 155.301 29.6649 156.601 29.0168C158.834 27.9957 161.177 27.2272 163.584 26.7258Z" fill="#F5F5F5"/>
<path d="M165.579 29.982C165.579 29.982 168.544 37.688 168.575 40.531C168.607 43.3739 166.932 51.0748 166.932 51.0748L158.559 66.8722L157.084 78.5303C151.523 78.5303 144.077 77.4525 136.072 76.0206C136.072 76.0206 142.202 54.178 144.135 51.2414C146.068 48.3047 152.845 34.8555 152.845 34.8555C153.38 33.7372 154.146 32.7421 155.094 31.9345C157.442 29.8518 161.75 28.7532 165.595 28.2897L165.579 29.982Z" fill="#314559"/>
<path d="M162.383 33.2243C159.992 33.1462 156.701 34.4479 155.01 38.379L153.225 43.2786L146.59 52.6978L129.174 51.5627L128.121 58.6856C128.121 58.6856 147.079 62.8511 149.323 62.6115C151.566 62.372 162.314 51.2659 162.314 51.2659C162.314 51.2659 167.907 44.3669 167.633 38.6185" fill="#314559"/>
<path d="M167.626 38.6191C167.621 38.6988 167.621 38.7789 167.626 38.8586C167.626 39.0356 167.626 39.2699 167.626 39.5719C167.626 39.8739 167.537 40.2696 167.484 40.7226C167.388 41.2492 167.265 41.7706 167.116 42.2847C166.463 44.5809 164.925 47.7831 162.265 51.2248C160.628 52.8962 158.784 54.7238 156.736 56.6555C155.714 57.6187 154.629 58.6133 153.497 59.6025C152.928 60.092 152.339 60.5866 151.728 61.0657C151.122 61.558 150.47 61.9905 149.779 62.357C149.616 62.4397 149.436 62.4875 149.253 62.4975C149.052 62.4975 148.863 62.4975 148.663 62.4975C148.257 62.4559 147.852 62.4246 147.446 62.357C146.625 62.2476 145.803 62.107 144.966 61.9664C143.297 61.6801 141.596 61.352 139.858 61.0136C136.393 60.3263 132.801 59.5765 129.12 58.7851L128.188 58.582L128.309 58.7538C128.678 56.3327 129.036 53.9532 129.362 51.6361L129.199 51.7663L146.614 52.8754H146.656L146.698 52.8129L153.313 43.3781L154.413 40.3165C154.702 39.4015 155.054 38.5072 155.467 37.6402C156.169 36.268 157.248 35.1186 158.579 34.3235C159.422 33.8272 160.356 33.5032 161.328 33.3706C161.579 33.3341 161.832 33.3115 162.086 33.3029C162.172 33.3099 162.258 33.3099 162.344 33.3029C162.003 33.2673 161.659 33.2673 161.317 33.3029C160.331 33.4148 159.379 33.7268 158.521 34.2193C157.154 35.0088 156.041 36.1663 155.314 37.5569C154.886 38.426 154.52 39.3238 154.219 40.2436L153.097 43.3V43.274L146.493 52.6202L146.614 52.5629L129.199 51.4122H129.062V51.5528C128.711 53.8751 128.351 56.2476 127.982 58.6705V58.8163L128.125 58.8476L129.051 59.0506C132.738 59.8421 136.329 60.6127 139.8 61.2739C141.538 61.6072 143.244 61.9352 144.913 62.2216C145.756 62.3622 146.583 62.4975 147.404 62.6069C147.815 62.6746 148.231 62.7006 148.642 62.7475C148.847 62.7475 149.063 62.7475 149.274 62.7475C149.492 62.7338 149.706 62.6753 149.9 62.5756C150.614 62.2009 151.286 61.7542 151.907 61.2427C152.521 60.7602 153.113 60.2673 153.681 59.764C154.824 58.7695 155.893 57.7697 156.92 56.8013C158.958 54.8539 160.796 53.0159 162.423 51.3341C165.083 47.8508 166.589 44.6226 167.216 42.2951C167.359 41.7808 167.475 41.2594 167.563 40.7331C167.605 40.2697 167.668 39.8843 167.674 39.5719C167.679 39.2595 167.674 39.0513 167.674 38.8534C167.666 38.7739 167.65 38.6954 167.626 38.6191Z" fill="#263238"/>
<path d="M151.283 35.3755C151.434 35.2619 151.574 35.1365 151.704 35.0006C151.836 34.8705 151.994 34.7195 152.194 34.5529C152.394 34.3863 152.605 34.1832 152.863 33.9853C153.457 33.5084 154.08 33.0668 154.727 32.6628C155.527 32.181 156.358 31.7497 157.213 31.3715C158.779 30.7086 160.407 30.1994 162.074 29.8511C162.716 29.7157 163.237 29.6168 163.596 29.5543C163.784 29.531 163.971 29.4927 164.154 29.4398C163.963 29.4418 163.773 29.4592 163.585 29.4918C163.222 29.5335 162.695 29.6116 162.053 29.7366C160.367 30.0499 158.721 30.5458 157.144 31.2153C156.279 31.5936 155.443 32.0339 154.643 32.5326C153.993 32.9436 153.372 33.3976 152.784 33.8916C152.531 34.0947 152.321 34.3081 152.126 34.48C151.931 34.6518 151.778 34.8184 151.657 34.9538C151.521 35.0836 151.395 35.2247 151.283 35.3755Z" fill="#263238"/>
<path d="M137.65 18.823L139.304 23.6498L139.888 24.4568C139.888 24.4568 140.415 27.1383 140.415 27.7111C140.25 28.9151 140.011 30.108 139.699 31.283L141.379 33.9488L136.718 35.7192C136.718 35.7192 135.454 33.2824 135.107 33.0064C134.721 32.5532 134.481 31.9967 134.417 31.4079C134.333 30.8872 133.637 27.7111 133.637 27.7111C133.637 27.7111 131.568 24.2173 132.431 24.0403C132.647 24.0186 132.864 24.0186 133.079 24.0403C133.079 24.0403 134.322 26.3365 134.659 26.3833L135.128 26.1126C135.128 26.1126 134.159 22.598 134.106 21.9471C134.053 21.2963 134.196 20.8277 134.706 20.7496C134.706 20.7496 135.091 20.9058 135.128 21.0724C135.165 21.239 136.128 25.1597 136.35 25.0816C136.571 25.0035 136.465 24.6547 136.465 24.6547C136.465 24.6547 135.175 19.9009 135.233 19.6301C135.257 19.4456 135.349 19.2766 135.492 19.1561C135.636 19.0357 135.819 18.9726 136.007 18.9793L136.992 21.5827C136.992 21.5827 136.534 19.3854 136.892 18.9793C136.982 18.873 137.106 18.7998 137.244 18.7714C137.381 18.7431 137.524 18.7613 137.65 18.823Z" fill="#FFBF9D"/>
<path d="M136.648 29.5021C136.691 29.5021 136.648 29.0907 136.817 28.4607C137.043 27.5837 137.551 26.8033 138.265 26.2374L138.328 26.1905V26.1176C138.248 25.7705 138.163 25.406 138.076 25.0242C137.997 24.9096 137.912 24.7795 137.833 24.6441C137.577 24.2146 137.399 23.7441 137.307 23.2539C137.259 23.0395 137.259 22.8174 137.307 22.603C137.325 22.5167 137.368 22.4374 137.43 22.3746C137.493 22.3118 137.573 22.2682 137.66 22.249L137.581 22.2177C138.139 22.7384 138.607 23.181 138.939 23.4778C139.097 23.6448 139.274 23.7933 139.466 23.9204C139.333 23.7306 139.179 23.556 139.008 23.3997C138.697 23.0769 138.255 22.6186 137.707 22.0771L137.675 22.0459H137.628C137.501 22.0694 137.384 22.1286 137.291 22.2164C137.197 22.3041 137.132 22.4167 137.101 22.5406C137.037 22.7856 137.028 23.0415 137.075 23.2903C137.169 23.811 137.358 24.3103 137.633 24.7639C137.71 24.9031 137.796 25.0371 137.891 25.1648V25.1231L138.155 26.2113L138.202 26.0916C137.447 26.6896 136.93 27.5325 136.743 28.4711C136.691 28.7368 136.67 29.0076 136.68 29.2782C136.66 29.3512 136.649 29.4264 136.648 29.5021Z" fill="#FF9A6C"/>
<path d="M136.65 25.5974C136.109 25.6847 135.599 25.9029 135.165 26.2326C134.689 26.4994 134.286 26.8764 133.99 27.3313C134.445 27.0595 134.883 26.7604 135.302 26.4357C135.766 26.1809 136.216 25.901 136.65 25.5974Z" fill="#FF9A6C"/>
<path d="M134.758 35.3021L141.783 32.3342L145.706 38.4783L136.806 39.2072L134.758 35.3021Z" fill="#314559"/>
<path d="M175.02 16.3666C172.711 18.493 171.015 21.1886 170.107 24.1768C168.801 28.8994 169.549 42.3694 167.595 46.6599C165.641 50.9503 156.536 66.8935 156.362 70.3717C156.188 73.8498 157.031 75.2349 158.995 78.5516C160.959 81.8683 165.183 87.0127 168.411 87.0751C171.639 87.1376 172.571 84.05 172.571 84.05L167.037 73.2406L174.293 55.35L179.307 35.6318L181.566 25.9107L175.02 16.3666Z" fill="#263238"/>
<path d="M161.791 70.8402C161.791 70.8402 159.885 73.9122 161.554 76.6353C163.224 79.3585 168.026 87.3406 170.612 86.3929C173.198 85.4453 174.298 83.9353 174.056 83.6177C173.814 83.3001 172.129 76.8176 172.929 70.7152C173.73 64.6128 179.907 41.3488 181.329 35.9597C182.751 30.5707 183.488 20.2039 181.36 16.4498C179.233 12.6957 175.041 16.3665 175.041 16.3665C175.041 16.3665 178.064 26.9832 177.442 31.9869C176.821 36.9907 161.791 70.8402 161.791 70.8402Z" fill="#E0E0E0"/>
<path d="M161.791 70.838C161.791 70.838 161.838 70.7546 161.917 70.588C161.996 70.4214 162.117 70.1559 162.265 69.8278C162.57 69.1509 163.012 68.1668 163.581 66.8912C164.719 64.319 166.367 60.5753 168.389 55.8475C170.411 51.1197 172.839 45.4339 175.33 38.9046C175.641 38.0871 175.957 37.2592 176.246 36.4105L176.699 35.1296L177.11 33.8123C177.254 33.3669 177.37 32.913 177.458 32.4533C177.558 31.989 177.616 31.5168 177.631 31.0423C177.655 30.0829 177.618 29.123 177.521 28.1681C177.058 24.1632 176.269 20.2018 175.162 16.3226L175.119 16.4788C175.758 15.9453 176.48 15.518 177.257 15.2136C177.633 15.023 178.045 14.9145 178.467 14.8956C178.888 14.8766 179.309 14.9476 179.7 15.1037C180.091 15.2598 180.444 15.4974 180.734 15.8002C181.024 16.1031 181.245 16.4642 181.381 16.8589C181.742 17.6544 181.996 18.4927 182.139 19.353C182.429 21.1258 182.559 22.9205 182.529 24.716C182.511 26.5534 182.397 28.3887 182.187 30.2144C182.039 31.5682 181.829 32.9063 181.565 34.2184C181.302 35.5305 180.933 36.8218 180.602 38.1079C179.927 40.6801 179.266 43.2141 178.616 45.7099C177.331 50.6928 176.109 55.5091 175.014 60.1119C174.487 62.4133 173.961 64.6627 173.492 66.8808C172.989 69.0037 172.691 71.169 172.602 73.3476C172.557 75.384 172.689 77.4204 172.997 79.4344C173.141 80.4029 173.317 81.3453 173.524 82.2617C173.621 82.7237 173.753 83.178 173.919 83.6207C174.029 83.7665 173.919 83.9539 173.798 84.1413C173.676 84.3291 173.535 84.5036 173.376 84.662C172.745 85.2551 172.012 85.7328 171.212 86.0731C170.859 86.2763 170.461 86.3891 170.053 86.4011C169.658 86.3543 169.28 86.217 168.947 86.0002C168.294 85.5721 167.698 85.0648 167.173 84.4902C166.646 83.9383 166.183 83.3708 165.746 82.8136C164.277 80.8684 162.915 78.847 161.664 76.7581C161.186 76.0147 160.926 75.1552 160.911 74.2744C160.902 73.6281 160.991 72.984 161.175 72.3635C161.291 71.9829 161.433 71.6106 161.601 71.2493C161.717 71.0046 161.78 70.8796 161.78 70.8796C161.492 71.3349 161.269 71.8272 161.117 72.3427C160.916 72.9674 160.815 73.619 160.816 74.2744C160.822 75.1745 161.079 76.0556 161.559 76.8206C162.798 78.9109 164.151 80.9324 165.614 82.8761C166.051 83.4384 166.52 84.0164 167.041 84.5735C167.574 85.1675 168.181 85.6924 168.847 86.1356C169.205 86.3725 169.615 86.5223 170.043 86.5729C170.155 86.5807 170.268 86.5807 170.38 86.5729C170.491 86.5527 170.6 86.5231 170.706 86.4844C170.906 86.4063 171.107 86.3334 171.307 86.2397C172.132 85.8917 172.888 85.4016 173.54 84.7922C173.708 84.6342 173.86 84.4597 173.992 84.2715C174.061 84.1689 174.118 84.0588 174.161 83.9435C174.186 83.8753 174.197 83.8026 174.193 83.73C174.19 83.6838 174.175 83.639 174.15 83.5998L174.119 83.527C173.968 83.0994 173.845 82.6629 173.75 82.22C173.545 81.314 173.371 80.3716 173.224 79.4136C172.929 77.4123 172.804 75.3903 172.85 73.3685C172.943 71.2051 173.245 69.0554 173.75 66.9485C174.208 64.7564 174.735 62.5123 175.283 60.2108C176.389 55.6132 177.61 50.7969 178.901 45.814L180.886 38.186C181.218 36.8999 181.592 35.6086 181.855 34.2809C182.118 32.9532 182.334 31.6098 182.482 30.2456C182.692 28.4095 182.806 26.5638 182.824 24.716C182.854 22.903 182.722 21.0908 182.429 19.3009C182.279 18.414 182.016 17.5496 181.644 16.7287C181.491 16.3006 181.247 15.9095 180.929 15.5816C180.611 15.2536 180.226 14.9962 179.8 14.8264C179.373 14.6565 178.916 14.5782 178.456 14.5964C177.997 14.6147 177.547 14.7292 177.136 14.9324C176.325 15.2517 175.571 15.6982 174.903 16.2549L174.835 16.3122V16.4059C175.941 20.2664 176.732 24.2085 177.2 28.1941C177.889 32.0836 176.178 35.5514 175.046 38.816C172.576 45.3454 170.159 51.0364 168.173 55.7746C166.188 60.5128 164.555 64.2565 163.434 66.8495C162.907 68.1356 162.459 69.1249 162.165 69.807C162.022 70.1402 161.917 70.3954 161.843 70.5724C161.77 70.7494 161.791 70.838 161.791 70.838Z" fill="#263238"/>
<path d="M28.5238 95.4917L308.822 95.4917V56.7322L28.5238 56.7322V95.4917Z" fill="#314559"/>
<g opacity="0.4">
<path d="M28.5277 95.4921L308.826 95.4921V56.7326L28.5277 56.7326V95.4921Z" fill="black"/>
</g>
<path d="M322.443 57.6917C322.443 57.6917 321.29 46.9865 320.774 45.6328C320.258 44.279 318.204 41.4309 318.204 41.4309V29.3719C319.747 27.8775 320.005 26.6591 320.005 26.6591C320.289 25.9354 301.763 23.9516 301.763 23.9516C301.763 23.9516 259.502 10.5336 250.765 7.96146C242.028 5.3893 202.722 1.71328 202.722 1.71328C173.305 -1.98355 153.261 0.437616 132.439 7.66988C120.29 11.8926 70.6717 37.8694 70.6717 37.8694L65.6583 38.2755C65.6583 38.2755 50.1915 40.4416 46.7 40.8477C40.9599 41.5194 20.2953 49.3869 12.3275 54.3854C8.57735 56.7621 5.18723 59.6529 2.25858 62.9714C0.883484 64.5685 0.135748 66.6016 0.1521 68.6989V84.7307C-0.232332 90.4218 14.1549 101.668 14.1549 101.668H31.8546V91.9838H32.3812C32.3233 91.2132 32.2864 90.4218 32.2864 89.6512C32.2864 73.7131 44.3197 60.795 59.144 60.795C73.9684 60.795 86.0016 73.7131 86.0016 89.6512C86.0016 90.4374 85.9648 91.2132 85.9068 91.9838L85.8015 101.741H239.574L239.632 88.5942C240.159 73.1508 251.971 60.795 266.49 60.795C281.009 60.795 292.821 73.1508 293.348 88.5942L293.353 98.7527C293.353 98.7527 313.069 95.79 315.508 93.7593C317.946 91.7287 327.983 78.1753 327.983 74.6555C327.983 71.1357 322.443 57.6917 322.443 57.6917ZM175.095 36.3074L114.007 40.8841L104.56 27.4193C104.56 27.4193 128.226 13.2203 149.027 8.92992C170.129 4.58223 180.798 5.75897 180.798 5.75897L175.095 36.3074ZM188.692 36.3074C188.692 36.3074 190.615 7.34184 191.378 6.32651C192.142 5.31119 248.027 12.809 249.37 13.6161C250.712 14.4231 257.627 28.1951 257.795 28.8095L188.692 36.3074Z" fill="#314559"/>
<path d="M30.9512 74.6304L31.0934 74.3909C31.1882 74.2295 31.3145 73.9848 31.5094 73.6776C31.8728 73.0476 32.4573 72.1416 33.2578 71.0013C34.2528 69.6184 35.3345 68.2984 36.4965 67.0493C38.034 65.3739 39.7403 63.8578 41.5889 62.5246C43.8202 60.8768 46.292 59.5741 48.9194 58.6611C51.9756 57.6511 55.1762 57.1342 58.3986 57.1303C62.0519 57.0396 65.7004 57.446 69.2417 58.3383C71.1611 58.8092 73.0331 59.4523 74.8344 60.2596C76.7414 61.0756 78.5372 62.1252 80.1796 63.3837L80.2322 63.4202H80.3007L121.035 59.1818L158.888 55.2038L159.973 55.0893L161.058 55.032L163.201 54.9227L167.414 54.73L175.466 54.4228C180.664 54.2562 185.503 54.152 189.922 54.0843C198.764 53.949 205.921 53.9334 210.865 53.9073L216.558 53.8709H218.038H218.565C218.565 53.8709 218.391 53.8709 218.038 53.8709H216.558L210.865 53.8396C205.921 53.8396 198.753 53.8084 189.922 53.9073C185.498 53.9594 180.659 54.0531 175.461 54.2041C172.859 54.2805 170.174 54.3777 167.404 54.4957L163.191 54.6831L161.042 54.7873L159.957 54.8446L158.867 54.9591L121.008 58.9059L80.2691 63.1859L80.3797 63.2171C78.7112 61.9452 76.8891 60.8836 74.9555 60.0566C73.1377 59.2498 71.25 58.6067 69.3154 58.1352C65.7543 57.2446 62.0864 56.8417 58.4144 56.9377C55.164 56.9458 51.9364 57.4733 48.8562 58.4997C46.21 59.4323 43.7236 60.7598 41.4836 62.4361C39.6318 63.785 37.9254 65.3187 36.3912 67.0129C35.2336 68.2735 34.1605 69.6076 33.1788 71.0065C32.3888 72.1572 31.8148 73.0892 31.462 73.714C31.1092 74.3389 30.9512 74.6304 30.9512 74.6304Z" fill="#263238"/>
<g opacity="0.2">
<path d="M0.142335 73.4129L11.4857 69.1433L12.8391 75.6466L30.9496 74.6313C30.9496 74.6313 38.9226 58.563 55.2267 57.152C69.1874 55.9388 80.2991 63.2648 80.2991 63.2648L160.071 54.9339C160.071 54.9339 200.537 53.3094 216.146 53.5124C231.755 53.7155 245.51 65.6808 245.51 65.6808C245.51 65.6808 250.113 58.6359 266.438 58.4745C282.763 58.3131 289.567 68.4247 289.567 68.4247C301.252 66.7586 312.255 61.9717 321.391 54.5798L322.186 55.2515C322.349 56.6938 322.46 57.7143 322.46 57.7143C322.46 57.7143 328 71.1271 328 74.6521C328 78.1771 317.968 91.7252 315.524 93.7559C313.081 95.7865 293.348 98.7544 293.348 98.7544L293.385 88.6116C292.859 73.1681 281.046 60.8124 266.528 60.8124C252.009 60.8124 240.197 73.1681 239.67 88.6116L239.612 101.759H85.8391L85.9445 92.0012C86.0024 91.2306 86.0392 90.4391 86.0392 89.6685C86.0392 73.7305 74.0113 60.8124 59.1816 60.8124C44.352 60.8124 32.3241 73.7305 32.3241 89.6685C32.3241 90.4548 32.3609 91.2306 32.4188 92.0012H31.8922V101.759H14.1451C14.1451 101.759 -0.242098 90.512 0.142335 84.821V73.4129Z" fill="black"/>
</g>
<path d="M273.761 24.8176L258.647 13.3626C258.092 12.9385 257.435 12.6656 256.741 12.5712C224.648 8.13498 199.813 4.24028 186.874 3.76125C144.118 1.28801 115.48 19.4129 111.399 21.4644C107.318 23.5159 89.9286 33.789 86 37.7774C84.0358 39.7716 84.3359 41.5263 85.1311 42.7811C85.5378 43.4094 86.1076 43.9181 86.7811 44.2543C87.4545 44.5904 88.2069 44.7416 88.9596 44.692L182.603 39.2144L259.405 30.2691L272.918 28.3687C274.593 28.1343 275.151 25.859 273.761 24.8176ZM175.094 36.309L114.006 40.8858L104.558 27.421C104.558 27.421 128.224 13.222 149.026 8.93161C170.128 4.58392 180.797 5.76066 180.797 5.76066L175.094 36.309ZM188.691 36.309C188.691 36.309 190.613 7.34353 191.377 6.3282C192.14 5.31288 248.025 12.8107 249.368 13.6177C250.711 14.4248 257.625 28.1968 257.794 28.8112L188.691 36.309Z" fill="#263238"/>
<path d="M102.214 26.6893C102.214 26.6893 102.161 26.7882 102.072 26.9965L101.677 27.9129C101.508 28.319 101.271 28.8136 101.05 29.4228L100.265 31.5472C98.6931 36.2503 97.5942 41.0953 96.9844 46.0117C96.0354 53.6578 95.8062 61.3744 96.2998 69.0623C96.5526 73.5089 97.0107 78.2263 97.7269 83.1571C98.085 85.6252 98.5011 88.1453 99.0224 90.707C99.1365 91.361 99.302 92.0051 99.5174 92.6335C99.769 93.2497 100.063 93.8482 100.397 94.4247C101.058 95.585 101.779 96.7112 102.556 97.7987L102.598 97.8612H102.672L166.14 96.6376L200.786 95.7993C206.295 95.6847 211.651 95.5702 216.822 95.5337C217.464 95.5337 218.112 95.5337 218.749 95.5337C219.387 95.5337 220.024 95.5337 220.677 95.5337C221.959 95.4232 223.205 95.0528 224.337 94.4455C225.459 93.8391 226.485 93.0724 227.381 92.1701C228.283 91.2863 229.075 90.2986 229.74 89.2283C235.654 80.637 240.994 72.6967 245.67 65.6154C247.998 62.0643 250.178 58.7372 252.137 55.6235C254.096 52.5098 255.881 49.6409 257.403 46.975C258.142 45.7236 258.805 44.4301 259.389 43.1011C259.515 42.7783 259.641 42.4659 259.763 42.1535C259.884 41.8411 259.952 41.5183 260.047 41.2111C260.142 40.9038 260.242 40.5967 260.294 40.2894C260.347 39.9822 260.4 39.675 260.452 39.3783C260.967 36.0856 260.296 32.719 258.557 29.8654C258.337 29.4984 258.087 29.1501 257.809 28.8241L257.993 29.0844C258.119 29.2562 258.298 29.5218 258.52 29.8862C260.214 32.739 260.854 36.0847 260.331 39.3522C260.279 39.649 260.226 39.9458 260.168 40.253C260.11 40.5602 260.005 40.8518 259.921 41.1642C259.836 41.4766 259.757 41.789 259.636 42.0962C259.515 42.4034 259.389 42.7158 259.262 43.0334C258.672 44.3529 258.006 45.6376 257.266 46.8813C255.755 49.5315 253.964 52.4005 252 55.5038C250.036 58.607 247.845 61.9238 245.512 65.4696C240.82 72.5404 235.464 80.4652 229.54 89.046C228.245 91.1644 226.423 92.9193 224.247 94.1435C223.148 94.7266 221.94 95.081 220.698 95.1849C220.076 95.2161 219.439 95.2161 218.797 95.1849C218.154 95.1536 217.507 95.1849 216.859 95.1849C211.687 95.2213 206.326 95.3307 200.818 95.44L166.14 96.2939L102.667 97.554L102.782 97.6165C102.014 96.5283 101.282 95.414 100.634 94.2737C100.313 93.7024 100.029 93.1111 99.786 92.5034C99.5739 91.8928 99.4136 91.2658 99.3068 90.6289C98.7802 88.0724 98.3589 85.5575 97.9955 83.0947C97.2741 78.1742 96.8054 73.4621 96.5473 69.0363C96.0374 61.3625 96.2436 53.6585 97.1635 46.0222C97.7547 41.1194 98.8216 36.2843 100.35 31.5837C100.634 30.7818 100.876 30.0737 101.108 29.4593C101.34 28.8449 101.555 28.345 101.719 27.9337C101.882 27.5223 102.008 27.2256 102.093 27.0121C102.177 26.7986 102.214 26.6893 102.214 26.6893Z" fill="#263238"/>
<g opacity="0.2">
<path d="M228.838 76.3624C228.838 76.3624 200.295 89.0202 195.134 90.2126C189.973 91.4049 106.309 92.087 106.309 92.087L104.582 88.1507L191.869 87.5415C191.869 87.5415 226.91 73.6966 228.838 76.3624Z" fill="black"/>
</g>
<path d="M11.4895 69.1431C11.4895 69.1431 15.0021 60.5154 14.9231 60.2238C14.3964 58.6618 12.3479 54.439 12.3479 54.439C11.0734 55.2004 9.84268 56.0313 8.66156 56.9279C6.17627 58.7934 3.88314 60.8967 1.81551 63.2073C0.716916 64.5045 0.118082 66.1443 0.12506 67.8362V75.0632L11.4895 69.1431Z" fill="#EBEBEB"/>
<path d="M88.3654 29.1729C88.297 29.2405 89.0922 30.2142 90.0085 31.5003C90.9248 32.7864 91.6305 33.833 91.7095 33.7809C91.7885 33.7288 91.1829 32.5729 90.2666 31.292C89.3502 30.0112 88.4286 29.1104 88.3654 29.1729Z" fill="#263238"/>
<path d="M106.287 92.0634C106.287 92.0634 106.398 92.0634 106.608 92.0634H107.54L111.137 92.0166L124.35 91.7927L167.954 90.9232L191.947 90.4233L193.327 90.3921C193.784 90.3951 194.241 90.3725 194.696 90.3244C195.584 90.1444 196.443 89.8467 197.25 89.4392C198.867 88.7467 200.447 88.1011 201.99 87.4762C205.055 86.2422 207.925 85.128 210.542 84.1126C215.782 82.082 220.021 80.4106 222.907 79.187C224.36 78.5778 225.482 78.0936 226.235 77.7551L227.094 77.3646C227.288 77.2761 227.383 77.224 227.383 77.224C227.383 77.224 227.278 77.2553 227.083 77.3334L226.209 77.6874C225.43 78.0103 224.308 78.4737 222.86 79.062C219.953 80.244 215.713 81.8841 210.463 83.8835C207.83 84.8885 204.965 85.9663 201.895 87.2107C200.362 87.8303 198.777 88.4708 197.155 89.1581C196.37 89.5541 195.534 89.8431 194.67 90.0172C194.225 90.0647 193.779 90.0856 193.332 90.0797L191.958 90.1057L167.954 90.6003L124.35 91.574L111.137 91.9073L107.546 92.0114L106.608 92.053C106.501 92.0509 106.394 92.0544 106.287 92.0634Z" fill="#263238"/>
<path d="M113.351 27.2057C114.504 29.6998 115.763 33.381 115.531 37.1976C115.496 38.3607 115.016 39.4674 114.189 40.2945C113.361 41.1216 112.247 41.6077 111.071 41.6546L100.064 41.7379C99.2532 41.7387 98.4699 41.4456 97.8624 40.9141C97.255 40.3826 96.8656 39.6495 96.7677 38.8533C96.6911 38.249 96.7878 37.6356 97.0468 37.083C98.1896 34.6254 99.1533 35.094 99.1533 35.094C99.1533 35.094 102.487 27.8409 107.579 25.0865C108.096 24.8312 108.659 24.6835 109.236 24.6526C109.812 24.6217 110.389 24.7083 110.93 24.9071C111.472 25.1058 111.966 25.4124 112.382 25.8078C112.799 26.2032 113.128 26.679 113.351 27.2057Z" fill="#314559"/>
<path d="M101.958 41.7231C101.958 41.77 101.521 41.6398 100.958 41.2024C100.192 40.6324 99.6366 39.8292 99.3777 38.9166C99.1792 37.9949 99.1049 37.0512 99.1565 36.1102C99.125 35.724 99.157 35.3354 99.2513 34.9595C99.3731 35.3291 99.4318 35.7162 99.4251 36.1049C99.4553 37.013 99.5628 37.917 99.7463 38.8073C99.9975 39.6469 100.483 40.3994 101.147 40.9785C101.616 41.4784 101.984 41.671 101.958 41.7231Z" fill="#263238"/>
<path d="M101.129 33.5631C101.247 33.0316 101.453 32.5232 101.74 32.0584C102.349 30.9108 103.115 29.8509 104.015 28.9083C104.895 27.9819 105.904 27.1842 107.011 26.5392C107.447 26.2457 107.932 26.0307 108.444 25.9039C108.507 26.0185 106.337 27.039 104.283 29.1946C102.23 31.3503 101.239 33.6256 101.129 33.5631Z" fill="white"/>
<g opacity="0.2">
<path d="M14.9176 60.2217L7.84507 66.5584L0.140625 67.8341V75.0612L11.4893 69.141C12.8901 65.7045 14.1592 62.4919 14.9176 60.2217Z" fill="black"/>
</g>
<path d="M15.002 60.2237C15.0639 60.2098 15.124 60.1888 15.181 60.1612L15.7076 59.9373L17.6666 59.0574L24.8761 55.8031C27.9199 54.4441 31.5536 52.83 35.6191 51.117C37.6571 50.2891 39.8005 49.3935 42.0702 48.7114C43.213 48.4042 44.4136 48.222 45.6249 48.0033L49.3112 47.3889C59.317 45.78 68.3485 44.421 74.8997 43.4057L82.6515 42.2029L84.758 41.8644L85.2846 41.7655L85.4689 41.7187H85.2793L84.7264 41.7811L82.6199 42.0623L74.8523 43.1557C68.2906 44.1086 59.2327 45.4259 49.2428 47.0348L45.5564 47.6544C44.3452 47.8731 43.1445 48.0606 41.9754 48.373C39.6688 49.0759 37.536 49.9767 35.4927 50.8098C31.4272 52.5228 27.8041 54.1577 24.7655 55.548C21.7269 56.9382 19.2886 58.0941 17.6035 58.9011L15.6655 59.8436L15.1652 60.0987C15.1049 60.1322 15.0499 60.1743 15.002 60.2237Z" fill="#263238"/>
<path d="M59.4646 117.056C73.2942 117.056 84.5053 105.23 84.5053 90.6419C84.5053 76.0537 73.2942 64.2277 59.4646 64.2277C45.635 64.2277 34.4238 76.0537 34.4238 90.6419C34.4238 105.23 45.635 117.056 59.4646 117.056Z" fill="#263238"/>
<path d="M84.5138 90.1928C84.5138 90.1928 84.5138 90.2396 84.5138 90.2605C84.7139 104.84 73.6654 116.841 59.8364 117.055C46.0073 117.268 34.6376 105.6 34.4375 91.0207C34.4375 91.0207 34.4375 90.979 34.4375 90.953L84.5138 90.1928Z" fill="#263238"/>
<path d="M77.0398 90.3745C77.1767 100.616 69.4196 109.036 59.714 109.187C50.0084 109.338 42.0196 101.147 41.8826 90.9108C41.7457 80.6742 49.4976 72.2444 59.2084 72.0986C68.9193 71.9528 76.8976 80.1327 77.0398 90.3745Z" fill="#FAFAFA"/>
<path d="M59.2367 72.0986C68.9423 71.9528 76.9258 80.1327 77.068 90.3745L41.9109 90.8952C41.7424 80.669 49.4995 72.2444 59.2367 72.0986Z" fill="#E0E0E0"/>
<path d="M70.1693 90.479C70.2535 96.7272 65.5298 101.845 59.6369 101.934C53.744 102.023 48.8623 97.0396 48.7727 90.8018C48.6832 84.5641 53.4123 79.4302 59.3051 79.3469C65.198 79.2635 70.085 84.2412 70.1693 90.479Z" fill="#263238"/>
<path d="M154.026 31.1799C154.069 31.0966 149.429 28.5401 143.668 25.4524C137.907 22.3648 133.199 19.9592 133.135 20.0425C133.072 20.1258 137.733 22.6876 143.499 25.77C149.266 28.8525 153.984 31.2684 154.026 31.1799Z" fill="white"/>
<path d="M160.492 30.5121C160.534 30.4287 156.126 27.9086 150.655 24.8627C145.183 21.8167 140.702 19.432 140.649 19.5153C140.596 19.5986 145.015 22.1187 150.491 25.1647C155.968 28.2107 160.45 30.5954 160.492 30.5121Z" fill="white"/>
<path d="M0.139262 75.0625C0.186879 74.7174 0.208006 74.3693 0.202458 74.0211C0.202458 73.2869 0.234054 72.3341 0.255119 71.1834C0.276184 70.0327 0.255118 68.5435 0.323578 66.9919C0.392039 65.4403 1.54007 64.0344 2.60384 62.639C3.65677 61.3583 4.84488 60.1923 6.14799 59.1609C7.32762 58.1924 8.42299 57.3593 9.34457 56.6668L11.5511 55.0475C11.8335 54.8656 12.0995 54.66 12.3463 54.4331C12.0415 54.5776 11.7522 54.752 11.4826 54.9538C10.956 55.2974 10.1608 55.8129 9.21818 56.4793C8.27553 57.1458 7.1591 57.9633 5.96367 58.9266C4.63087 59.9577 3.42068 61.135 2.35633 62.4359C1.80352 63.1215 1.29855 63.8434 0.844934 64.5968C0.388149 65.3219 0.106992 66.1416 0.0234053 66.9919C-0.0292566 68.6008 0.0234053 70.0067 0.0234053 71.2094C0.0234053 72.4122 0.0602719 73.2921 0.0760705 74.0471C0.0652969 74.3868 0.08645 74.7267 0.139262 75.0625Z" fill="#263238"/>
</svg>
