<svg width="18" height="18" viewBox="0 0 18 18" fill="none" xmlns="http://www.w3.org/2000/svg">
<g id="healthicons:truck-driver-outline">
<g id="Group">
<path id="Vector" d="M7.875 4.125C7.875 4.02554 7.91451 3.93016 7.98483 3.85984C8.05516 3.78951 8.15054 3.75 8.25 3.75H9.75C9.84946 3.75 9.94484 3.78951 10.0152 3.85984C10.0855 3.93016 10.125 4.02554 10.125 4.125C10.125 4.22446 10.0855 4.31984 10.0152 4.39016C9.94484 4.46049 9.84946 4.5 9.75 4.5H8.25C8.15054 4.5 8.05516 4.46049 7.98483 4.39016C7.91451 4.31984 7.875 4.22446 7.875 4.125Z" fill="white"/>
<path id="Vector_2" fill-rule="evenodd" clip-rule="evenodd" d="M12.5124 6.945C12.3763 7.05188 12.1997 7.13738 11.9867 7.20675C12.0274 7.62336 11.9806 8.04388 11.8491 8.44128C11.7175 8.83868 11.5043 9.20416 11.2231 9.51423C10.9419 9.82429 10.5989 10.0721 10.2162 10.2416C9.8335 10.4112 9.41954 10.4988 9.00094 10.4988C8.58235 10.4988 8.16839 10.4112 7.78568 10.2416C7.40296 10.0721 7.05998 9.82429 6.77876 9.51423C6.49755 9.20416 6.28433 8.83868 6.15283 8.44128C6.02132 8.04388 5.97444 7.62336 6.01519 7.20675C5.80219 7.13738 5.62557 7.05188 5.48982 6.945C5.31357 6.80625 5.19544 6.621 5.18157 6.39825C5.16844 6.19163 5.25019 6.01613 5.33194 5.89238C5.41264 5.77516 5.50847 5.66912 5.61694 5.577C5.66944 5.53088 5.72119 5.49 5.76919 5.45438C5.75494 5.3775 5.73919 5.2845 5.72344 5.17688C5.65701 4.70418 5.62443 4.22734 5.62594 3.75C5.62594 3.63225 5.67619 3.5445 5.69944 3.50738C5.72869 3.4605 5.76319 3.42037 5.79469 3.38813C5.85732 3.3225 5.93832 3.25575 6.02719 3.19162C6.20719 3.06112 6.45469 2.9145 6.74869 2.77725C7.33482 2.5035 8.13994 2.25 9.00094 2.25C9.86232 2.25 10.6671 2.50388 11.2532 2.77725C11.5059 2.89285 11.7475 3.03157 11.9747 3.19162C12.0636 3.25575 12.1446 3.32288 12.2072 3.38813C12.2387 3.42037 12.2732 3.4605 12.3024 3.50738C12.3257 3.5445 12.3759 3.63225 12.3759 3.75C12.3759 4.35075 12.3272 4.8375 12.2784 5.17688C12.2627 5.2845 12.2469 5.3775 12.2327 5.45438C12.2807 5.49 12.3328 5.53088 12.3853 5.577C12.4791 5.65913 12.5863 5.766 12.6699 5.89238C12.7521 6.01613 12.8334 6.19163 12.8207 6.39863C12.8068 6.621 12.6887 6.80625 12.5124 6.945ZM6.37669 3.86925C6.38232 4.37475 6.42432 4.7835 6.46594 5.06925C6.47569 5.13675 6.48544 5.19675 6.49444 5.25H11.5074C11.5168 5.19675 11.5262 5.13638 11.5359 5.06925C11.5772 4.7835 11.6196 4.37475 11.6252 3.86925C11.596 3.84457 11.5659 3.82106 11.5348 3.79875C11.3994 3.70088 11.1939 3.5775 10.9359 3.45713C10.4173 3.21488 9.72244 3 9.00094 3C8.27944 3 7.58457 3.21488 7.06594 3.45713C6.80794 3.5775 6.60244 3.70088 6.46744 3.79838C6.43626 3.82092 6.40599 3.84469 6.37669 3.86963M6.29644 6L6.29532 6.00075C6.23059 6.04388 6.1686 6.09097 6.10969 6.14175C6.04294 6.20025 5.98969 6.25725 5.95744 6.30675C5.94977 6.31788 5.94287 6.32954 5.93682 6.34163C5.94213 6.34647 5.94763 6.3511 5.95332 6.3555C6.00957 6.39975 6.13032 6.46463 6.36582 6.52875C6.41232 6.5415 6.46219 6.5535 6.51544 6.5655L6.51882 6.56625C6.70707 6.60788 6.93882 6.645 7.22119 6.67425C7.62132 6.71588 8.12494 6.74325 8.75419 6.74925L9.00094 6.75C10.2111 6.75 10.9937 6.67463 11.4834 6.56625L11.4864 6.5655C11.5401 6.5535 11.5899 6.5415 11.6364 6.52875C11.8716 6.465 11.9927 6.39975 12.0486 6.3555C12.0543 6.3511 12.0598 6.34647 12.0651 6.34163C12.0591 6.32955 12.0524 6.3179 12.0448 6.30675C12.0012 6.24546 11.9499 6.19 11.8922 6.14175C11.8334 6.09097 11.7715 6.04388 11.7069 6.00075L11.7054 6H6.29644ZM8.89894 7.5C9.88969 7.5 10.6577 7.4475 11.2464 7.356C11.2658 7.66174 11.2225 7.96822 11.1192 8.25664C11.016 8.54507 10.8549 8.80936 10.6458 9.03333C10.4368 9.25729 10.1842 9.43621 9.90363 9.55912C9.62301 9.68203 9.32024 9.74634 9.01389 9.7481C8.70754 9.74987 8.40406 9.68905 8.12204 9.56938C7.84003 9.44971 7.58542 9.27372 7.37383 9.05217C7.16223 8.83063 6.99811 8.56821 6.89152 8.28099C6.78493 7.99378 6.73811 7.68782 6.75394 7.38188C7.30257 7.45763 8.00569 7.5 8.89894 7.5ZM6.03019 14.5789C6.01065 14.7184 6.00088 14.8591 6.00094 15V15.375C6.00098 15.4574 5.97386 15.5376 5.92377 15.6031C5.87367 15.6685 5.8034 15.7157 5.72382 15.7372C5.64424 15.7587 5.55979 15.7534 5.48353 15.7221C5.40727 15.6908 5.34345 15.6352 5.30194 15.564C5.04921 15.7011 4.75346 15.7359 4.47582 15.6611L3.75132 15.4669C3.46323 15.3895 3.21764 15.201 3.06856 14.9426C2.91947 14.6842 2.8791 14.3772 2.95632 14.0891L3.24732 13.0024C3.32457 12.7142 3.51311 12.4685 3.77148 12.3194C4.02986 12.1702 4.33689 12.1298 4.62507 12.207L5.34957 12.4009C5.60157 12.4684 5.81082 12.6165 5.95632 12.81C6.30346 12.3268 6.76074 11.9332 7.29027 11.662C7.81979 11.3907 8.40634 11.2495 9.00132 11.25C9.59597 11.2496 10.1822 11.3908 10.7114 11.662C11.2407 11.9331 11.6977 12.3264 12.0448 12.8093C12.1955 12.6093 12.4089 12.4657 12.6508 12.4013L13.3753 12.2074C13.6634 12.1302 13.9704 12.1705 14.2288 12.3196C14.4872 12.4687 14.6757 12.7143 14.7531 13.0024L15.0444 14.0895C15.0827 14.2322 15.0924 14.3811 15.0731 14.5275C15.0538 14.674 15.0058 14.8153 14.9319 14.9432C14.858 15.0711 14.7597 15.1833 14.6424 15.2732C14.5252 15.3631 14.3914 15.429 14.2487 15.4673L13.5246 15.6611C13.2474 15.7359 12.9521 15.7016 12.6996 15.5651C12.6579 15.6363 12.594 15.6917 12.5177 15.7228C12.4414 15.754 12.357 15.7592 12.2775 15.7375C12.1979 15.7159 12.1278 15.6686 12.0778 15.6031C12.0278 15.5376 12.0008 15.4574 12.0009 15.375V15C12.001 14.8591 11.9912 14.7184 11.9717 14.5789L10.0202 15.102C9.92961 15.2959 9.78559 15.4599 9.60506 15.5748C9.42452 15.6898 9.21495 15.7508 9.00094 15.7508C8.78693 15.7508 8.57736 15.6898 8.39682 15.5748C8.21629 15.4599 8.07228 15.2959 7.98169 15.102L6.03019 14.5789ZM7.92094 14.3089C7.97127 14.1379 8.06141 13.9813 8.18395 13.8519C8.3065 13.7225 8.45797 13.624 8.62594 13.5645V12.0233C8.09995 12.0897 7.60093 12.2943 7.17959 12.6161C6.75826 12.9379 6.42962 13.3655 6.22707 13.8555L7.92094 14.3089ZM11.7748 13.8551C11.5722 13.3652 11.2436 12.9377 10.8222 12.6159C10.4009 12.2942 9.90189 12.0897 9.37594 12.0233V13.5641C9.71494 13.6841 9.97969 13.9616 10.0809 14.3093L11.7748 13.8551ZM12.5799 13.5851C12.5672 13.5376 12.5639 13.4879 12.5703 13.4391C12.5768 13.3903 12.5927 13.3432 12.6173 13.3005C12.642 13.2579 12.6748 13.2205 12.7138 13.1905C12.7529 13.1605 12.7975 13.1385 12.8451 13.1258L13.5696 12.9315C13.6656 12.9058 13.7679 12.9194 13.8539 12.9691C13.94 13.0188 14.0028 13.1006 14.0286 13.1966L14.3199 14.2834C14.3327 14.3309 14.336 14.3806 14.3295 14.4294C14.3231 14.4782 14.3072 14.5253 14.2825 14.568C14.2579 14.6106 14.2251 14.648 14.1861 14.678C14.147 14.708 14.1024 14.73 14.0548 14.7428L13.3303 14.937C13.2827 14.9498 13.2331 14.953 13.1842 14.9466C13.1354 14.9401 13.0883 14.9241 13.0456 14.8995C13.0029 14.8748 12.9656 14.842 12.9356 14.8029C12.9056 14.7637 12.8837 14.7191 12.8709 14.6715L12.5799 13.5851ZM4.43119 12.9315C4.38359 12.9187 4.33394 12.9154 4.28506 12.9218C4.23619 12.9282 4.18905 12.9441 4.14635 12.9687C4.10365 12.9934 4.06622 13.0262 4.03621 13.0653C4.0062 13.1044 3.98419 13.149 3.97144 13.1966L3.68044 14.283C3.66768 14.3306 3.66442 14.3802 3.67083 14.429C3.67725 14.4779 3.69323 14.5249 3.71785 14.5676C3.74247 14.6103 3.77525 14.6477 3.81432 14.6776C3.85339 14.7076 3.89799 14.7296 3.94557 14.7424L4.67007 14.9366C4.71764 14.9494 4.76726 14.9527 4.81609 14.9462C4.86492 14.9398 4.91201 14.9238 4.95467 14.8992C4.99733 14.8746 5.03472 14.8418 5.06471 14.8027C5.0947 14.7637 5.11669 14.7191 5.12944 14.6715L5.42044 13.5848C5.43326 13.5372 5.43657 13.4875 5.43017 13.4386C5.42378 13.3897 5.40782 13.3426 5.38319 13.2999C5.35857 13.2572 5.32577 13.2198 5.28667 13.1898C5.24757 13.1598 5.20293 13.1377 5.15532 13.125L4.43119 12.9315ZM9.37594 14.625C9.37594 14.7245 9.33643 14.8198 9.26611 14.8902C9.19578 14.9605 9.1004 15 9.00094 15C8.90148 15 8.8061 14.9605 8.73578 14.8902C8.66545 14.8198 8.62594 14.7245 8.62594 14.625C8.62594 14.5255 8.66545 14.4302 8.73578 14.3598C8.8061 14.2895 8.90148 14.25 9.00094 14.25C9.1004 14.25 9.19578 14.2895 9.26611 14.3598C9.33643 14.4302 9.37594 14.5255 9.37594 14.625Z" fill="white"/>
</g>
</g>
</svg>
