<svg width="1440" height="315" viewBox="0 0 1440 315" fill="none" xmlns="http://www.w3.org/2000/svg">
<g opacity="0.5">
<path fill-rule="evenodd" clip-rule="evenodd" d="M337.523 0V24.7404H325.424V121.016H309.533V91.3671H301.163V84.2056L282.855 91.3671H278.37V73.5562L256.464 47.7413L234.559 73.5562V134.125H224.276V145.896H209.104V97.8577H196.529L197.053 77.9259H182.501V72.2173H167.758L165.489 37.6962L163.221 72.2173H160.385V77.9259H156.559L157.961 131.305H155.245V107.755L124.76 91.3671V121.016H94.2742V97.8577H75.456V84.2056L43.2205 104.924V84.2056L0 111.985V315H32.2344H43.2205H74.0826H75.456H94.2742H124.76H155.245H161.563H188.911H192.048H207.34H209.104H234.559H251.151H278.37H309.533H325.424H352.36H363.874H390.882H398.206H423.007H436.511H458.325H466.229H477.479H496.631H501.548H520.7H531.036H539.854H574.255H588.508H607.046H625.587H639.859H644.125H664.831H670.344H689V117.146H674.319L675.348 77.9259H644.125V21.1536H625.587V33.2216H607.046V44.2705H588.508V101.235H574.255V74.7498H569.18V71.8289H536.112V74.7498H531.036V129.975H520.7V58.9991H515.623V56.0782H482.556V58.9991H477.479V99.8705H466.229V74.7498H461.152V71.8289H428.085V74.7498H423.007V84.2056L412.396 94.6089V112.051H398.206V101.235H390.882V74.7498H363.874V59.0698L352.36 50.1265V24.7404H340.26V0H337.523Z" fill="#516BC5" fill-opacity="0.2"/>
<path fill-rule="evenodd" clip-rule="evenodd" d="M543.282 135.048V149.17H536.753V204.127H528.178V187.202H523.661V183.114L513.781 187.202H511.361V177.035L499.54 162.3L487.719 177.035V211.61H482.17V218.329H473.983V190.907H467.197L467.48 179.53H459.627V176.271H451.671L450.446 156.566L449.223 176.271H447.692V179.53H445.627L446.384 210H444.918V196.557L428.468 187.202V204.127H412.016V190.907H401.861V183.114L384.466 194.941V183.114L361.143 198.972V314.857H378.537H384.466H401.12H401.861H412.016H428.468H444.918H448.328H463.086H464.779H473.031H473.983H487.719H496.673H511.361H528.178H536.753H551.289H557.502H572.077H576.029H589.413H596.7H608.472H612.737H618.808H629.143H631.796H642.132H647.709H652.467H671.032H678.723H688.727H698.732H706.434H708.736H719.91H722.885H732.952V201.917H725.03L725.585 179.53H708.736V147.123H698.732V154.012H688.727V160.319H678.723V192.835H671.032V177.717H668.293V176.049H650.448V177.717H647.709V209.241H642.132V168.726H639.392V167.059H621.547V168.726H618.808V192.056H612.737V177.717H609.997V176.049H592.153V177.717H589.413V183.114L583.686 189.053V199.009H576.029V192.835H572.077V177.717H557.502V168.766L551.289 163.661V149.17H544.759V135.048H543.282Z" fill="#516BC5" fill-opacity="0.3"/>
<path fill-rule="evenodd" clip-rule="evenodd" d="M1072.1 0V24.7404H1085.29V121.016H1102.61V91.3671H1111.74V84.2056L1131.69 91.3671H1136.58V73.5562L1160.46 47.7413L1184.33 73.5562V134.125H1195.54V145.896H1212.08V97.8577H1225.79L1225.22 77.9259H1241.08V72.2173H1257.15L1259.62 37.6962L1262.09 72.2173H1265.18V77.9259H1269.35L1267.83 131.305H1270.79V107.755L1304.01 91.3671V121.016H1337.24V97.8577H1357.75V84.2056L1392.89 104.924V84.2056L1440 111.985V315H1404.87H1392.89H1359.25H1357.75H1337.24H1304.01H1270.79H1263.9H1234.09H1230.67H1214H1212.08H1184.33H1166.25H1136.58H1102.61H1085.29H1055.93H1043.38H1013.94H1005.96H978.929H964.209H940.432H931.818H919.555H898.679H893.32H872.444H861.179H851.567H814.07H798.535H778.328H758.12H742.563H737.913H715.344H709.335H689V117.146H705.002L703.88 77.9259H737.913V21.1536H758.12V33.2216H778.328V44.2705H798.535V101.235H814.07V74.7498H819.602V71.8289H855.646V74.7498H861.179V129.975H872.444V58.9991H877.978V56.0782H914.021V58.9991H919.555V99.8705H931.818V74.7498H937.351V71.8289H973.393V74.7498H978.929V84.2056L990.494 94.6089V112.051H1005.96V101.235H1013.94V74.7498H1043.38V59.0698L1055.93 50.1265V24.7404H1069.12V0H1072.1Z" fill="#516BC5" fill-opacity="0.2"/>
<path fill-rule="evenodd" clip-rule="evenodd" d="M184.228 135.048V149.17H190.57V204.127H198.9V187.202H203.287V183.114L212.883 187.202H215.234V177.035L226.716 162.3L238.197 177.035V211.61H243.587V218.329H251.54V190.907H258.131L257.856 179.53H265.484V176.271H273.212L274.401 156.566L275.589 176.271H277.076V179.53H279.081L278.347 210H279.77V196.557L295.749 187.202V204.127H311.728V190.907H321.592V183.114L338.488 194.941V183.114L361.143 198.972V314.857H344.247H338.488H322.312H321.592H311.728H295.749H279.77H276.459H262.124H260.48H252.464H251.54H238.197H229.501H215.234H198.9H190.57H176.452H170.416H156.26H152.421H139.421H132.343H120.909H116.767H110.87H100.831H98.2535H88.2148H82.7975H78.1755H60.1438H52.6729H42.9561H33.2381H25.757H23.5213H12.668H9.77832H-0.000274658V201.917H7.69479L7.1553 179.53H23.5213V147.123H33.2381V154.012H42.9561V160.319H52.6729V192.835H60.1438V177.717H62.804V176.049H80.1367V177.717H82.7975V209.241H88.2148V168.726H90.8762V167.059H108.208V168.726H110.87V192.056H116.767V177.717H119.427V176.049H136.759V177.717H139.421V183.114L144.983 189.053V199.009H152.421V192.835H156.26V177.717H170.416V168.766L176.452 163.661V149.17H182.794V135.048H184.228Z" fill="#516BC5" fill-opacity="0.3"/>
<path fill-rule="evenodd" clip-rule="evenodd" d="M1257.01 135.048V149.17H1250.71V204.127H1242.44V187.202H1238.09V183.114L1228.56 187.202H1226.22V177.035L1214.82 162.3L1203.42 177.035V211.61H1198.07V218.329H1190.17V190.907H1183.62L1183.9 179.53H1176.32V176.271H1168.65L1167.47 156.566L1166.29 176.271H1164.81V179.53H1162.82L1163.55 210H1162.14V196.557L1146.27 187.202V204.127H1130.4V190.907H1120.61V183.114L1103.83 194.941V183.114L1081.33 198.972V314.857H1098.11H1103.83H1119.89H1120.61H1130.4H1146.27H1162.14H1165.42H1179.66H1181.29H1189.25H1190.17H1203.42H1212.05H1226.22H1242.44H1250.71H1264.73H1270.73H1284.78H1288.6H1301.5H1308.53H1319.89H1324H1329.86H1339.83H1342.38H1352.35H1357.73H1362.32H1380.23H1387.65H1397.3H1406.95H1414.38H1416.6H1427.37H1430.24H1439.95V201.917H1432.31L1432.85 179.53H1416.6V147.123H1406.95V154.012H1397.3V160.319H1387.65V192.835H1380.23V177.717H1377.59V176.049H1360.38V177.717H1357.73V209.241H1352.35V168.726H1349.71V167.059H1332.5V168.726H1329.86V192.056H1324V177.717H1321.36V176.049H1304.15V177.717H1301.5V183.114L1295.98 189.053V199.009H1288.6V192.835H1284.78V177.717H1270.73V168.766L1264.73 163.661V149.17H1258.44V135.048H1257.01Z" fill="#516BC5" fill-opacity="0.3"/>
<path fill-rule="evenodd" clip-rule="evenodd" d="M910.693 135V149.122H916.81V204.079H924.844V187.155H929.076V183.067L938.332 187.155H940.599V176.988L951.674 162.252L962.748 176.988V211.562H967.946V218.281H975.617V190.86H981.974L981.71 179.482H989.066V176.223H996.52L997.667 156.518L998.814 176.223H1000.25V179.482H1002.18L1001.47 209.952H1002.85V196.509L1018.26 187.155V204.079H1033.67V190.86H1043.18V183.067L1059.48 194.893V183.067L1081.33 198.924V314.81H1065.04H1059.48H1043.88H1043.18H1033.67H1018.26H1002.85H999.652H985.826H984.24H976.509H975.617H962.748H954.36H940.599H924.844H916.81H903.193H897.371H883.717H880.014H867.476H860.649H849.62H845.625H839.937H830.254H827.768H818.086H812.861H808.403H791.011H783.805H774.433H765.059H757.844H755.687H745.219H742.432H733V201.87H740.422L739.902 179.482H755.687V147.075H765.059V153.964H774.433V160.271H783.805V192.787H791.011V177.669H793.576V176.002H810.294V177.669H812.861V209.193H818.086V168.678H820.653V167.011H837.37V168.678H839.937V192.008H845.625V177.669H848.191V176.002H864.908V177.669H867.476V183.067L872.84 189.005V198.961H880.014V192.787H883.717V177.669H897.371V168.718L903.193 163.613V149.122H909.31V135H910.693Z" fill="#516BC5" fill-opacity="0.3"/>
</g>
</svg>
