<svg width="20" height="20" viewBox="0 0 20 20" fill="none" xmlns="http://www.w3.org/2000/svg">
<g id="carbon:partnership">
<path id="Vector" d="M6.21429 6.41379C5.79047 6.41379 5.37617 6.28436 5.02378 6.04186C4.67139 5.79937 4.39673 5.4547 4.23454 5.05144C4.07236 4.64818 4.02992 4.20445 4.1126 3.77635C4.19529 3.34826 4.39937 2.95503 4.69906 2.64639C4.99874 2.33775 5.38056 2.12756 5.79624 2.04241C6.21191 1.95725 6.64277 2.00096 7.03432 2.16799C7.42588 2.33503 7.76055 2.61789 7.99601 2.98081C8.23147 3.34373 8.35714 3.77041 8.35714 4.2069C8.35714 4.7922 8.13138 5.35354 7.72951 5.76741C7.32765 6.18128 6.78261 6.41379 6.21429 6.41379ZM6.21429 3.10345C6.00238 3.10345 5.79523 3.16817 5.61903 3.28941C5.44284 3.41066 5.30551 3.583 5.22441 3.78463C5.14332 3.98625 5.1221 4.20812 5.16344 4.42217C5.20479 4.63622 5.30683 4.83283 5.45667 4.98715C5.60651 5.14147 5.79742 5.24657 6.00526 5.28914C6.2131 5.33172 6.42853 5.30987 6.6243 5.22635C6.82008 5.14283 6.98742 5.0014 7.10515 4.81994C7.22288 4.63848 7.28571 4.42514 7.28571 4.2069C7.28571 3.91424 7.17283 3.63358 6.9719 3.42664C6.77097 3.2197 6.49845 3.10345 6.21429 3.10345ZM14.7857 6.41379C14.3619 6.41379 13.9476 6.28436 13.5952 6.04186C13.2428 5.79937 12.9682 5.4547 12.806 5.05144C12.6438 4.64818 12.6013 4.20445 12.684 3.77635C12.7667 3.34826 12.9708 2.95503 13.2705 2.64639C13.5702 2.33775 13.952 2.12756 14.3677 2.04241C14.7833 1.95725 15.2142 2.00096 15.6057 2.16799C15.9973 2.33503 16.332 2.61789 16.5674 2.98081C16.8029 3.34373 16.9286 3.77041 16.9286 4.2069C16.9286 4.7922 16.7028 5.35354 16.3009 5.76741C15.8991 6.18128 15.354 6.41379 14.7857 6.41379ZM14.7857 3.10345C14.5738 3.10345 14.3667 3.16817 14.1905 3.28941C14.0143 3.41066 13.8769 3.583 13.7958 3.78463C13.7147 3.98625 13.6935 4.20812 13.7349 4.42217C13.7762 4.63622 13.8783 4.83283 14.0281 4.98715C14.1779 5.14147 14.3689 5.24657 14.5767 5.28914C14.7845 5.33172 15 5.30987 15.1957 5.22635C15.3915 5.14283 15.5588 5.0014 15.6766 4.81994C15.7943 4.63848 15.8571 4.42514 15.8571 4.2069C15.8571 3.91424 15.7443 3.63358 15.5433 3.42664C15.3424 3.2197 15.0699 3.10345 14.7857 3.10345ZM15.8571 18L13.7143 18C13.4301 18 13.1576 17.8837 12.9567 17.6768C12.7557 17.4699 12.6429 17.1892 12.6429 16.8966V13.0345H13.7143V16.8966L15.8571 16.8966L15.8571 11.931H16.9286V8.62069C16.9286 8.47436 16.8721 8.33403 16.7717 8.23056C16.6712 8.12709 16.5349 8.06897 16.3929 8.06897H12.9536L10.5 12.4828L8.04643 8.06897H4.60714C4.46506 8.06897 4.3288 8.12709 4.22834 8.23056C4.12787 8.33403 4.07143 8.47436 4.07143 8.62069L4.07143 11.931H5.14286L5.14286 16.8966H7.28571L7.28571 13.0345H8.35714V16.8966C8.35714 17.1892 8.24426 17.4699 8.04333 17.6768C7.8424 17.8837 7.56987 18 7.28571 18H5.14286C4.8587 18 4.58617 17.8837 4.38524 17.6768C4.18431 17.4699 4.07143 17.1892 4.07143 16.8966L4.07143 13.0345C3.78727 13.0345 3.51475 12.9182 3.31381 12.7113C3.11288 12.5044 3 12.2237 3 11.931L3 8.62069C3 8.18171 3.16932 7.76071 3.47072 7.45031C3.77212 7.1399 4.1809 6.96552 4.60714 6.96552L8.66786 6.96552L10.5 10.2759L12.3321 6.96552L16.3929 6.96552C16.8191 6.96552 17.2279 7.1399 17.5293 7.45031C17.8307 7.76071 18 8.18171 18 8.62069V11.931C18 12.2237 17.8871 12.5044 17.6862 12.7113C17.4853 12.9182 17.2127 13.0345 16.9286 13.0345V16.8966C16.9286 17.1892 16.8157 17.4699 16.6148 17.6768C16.4138 17.8837 16.1413 18 15.8571 18Z" fill="white"/>
</g>
</svg>
