<svg width="18" height="18" viewBox="0 0 18 18" fill="none" xmlns="http://www.w3.org/2000/svg">
<g id="material-symbols-light:rule-rounded">
<path id="Vector" d="M13.5388 12.8815L11.632 14.8837C11.5534 14.9662 11.4597 15.0048 11.3509 14.9995C11.2415 14.9936 11.1475 14.9494 11.069 14.8669C10.9905 14.7844 10.9512 14.6822 10.9512 14.5602C10.9512 14.4382 10.9905 14.3377 11.069 14.2587L12.959 12.2733L11.053 10.2702C10.9745 10.1877 10.9377 10.0863 10.9428 9.96609C10.9484 9.84586 10.9905 9.7445 11.069 9.66199C11.1475 9.57949 11.2449 9.53823 11.361 9.53823C11.4771 9.53823 11.5728 9.57949 11.648 9.66199L13.5388 11.6642L15.4449 9.66199C15.5201 9.57949 15.6154 9.53823 15.731 9.53823C15.8466 9.53823 15.9442 9.57949 16.0238 9.66199C16.1024 9.7445 16.1417 9.84675 16.1417 9.96874C16.1417 10.0907 16.1024 10.1912 16.0238 10.2702L14.1178 12.2733L16.0238 14.2755C16.1024 14.358 16.1417 14.4568 16.1417 14.5717C16.1417 14.686 16.1024 14.7844 16.0238 14.8669C15.9453 14.9494 15.848 14.9907 15.7318 14.9907C15.6157 14.9907 15.5201 14.9494 15.4449 14.8669L13.5388 12.8815ZM13.0079 6.57952L16.2864 3.1355C16.3683 3.04946 16.4676 3.00438 16.5843 3.00025C16.7004 2.99613 16.7997 3.04298 16.8822 3.1408C16.9607 3.23097 17 3.33617 17 3.45639C17 3.57661 16.9607 3.67974 16.8822 3.76578L13.5043 7.31942C13.3686 7.46204 13.2101 7.53335 13.0289 7.53335C12.8477 7.53335 12.6889 7.46204 12.5526 7.31942L10.9217 5.60537C10.8432 5.52286 10.8067 5.4215 10.8123 5.30127C10.8174 5.18105 10.8595 5.07969 10.9386 4.99718C11.0171 4.91468 11.1144 4.87342 11.2306 4.87342C11.3467 4.87342 11.4421 4.91468 11.5167 4.99718L13.0079 6.57952ZM2.42076 11.7456H8.31136C8.43086 11.7456 8.53071 11.788 8.61094 11.8728C8.69116 11.9577 8.73156 12.0629 8.73212 12.1884C8.73212 12.314 8.69172 12.4189 8.61094 12.5031C8.53015 12.5874 8.43029 12.6295 8.31136 12.6295H2.42076C2.30126 12.6295 2.2014 12.5871 2.12118 12.5022C2.04095 12.4174 2.00056 12.3125 2 12.1875C2 12.062 2.04039 11.9571 2.12118 11.8728C2.20196 11.7886 2.30182 11.7461 2.42076 11.7456ZM2.42076 5.35431H8.31136C8.43086 5.35431 8.53071 5.39675 8.61094 5.48161C8.69116 5.56647 8.73156 5.67137 8.73212 5.79631C8.73212 5.92183 8.69172 6.02673 8.61094 6.11101C8.53015 6.19528 8.43029 6.23771 8.31136 6.2383H2.42076C2.30126 6.2383 2.2014 6.19587 2.12118 6.11101C2.04095 6.02615 2.00056 5.92095 2 5.79542C2 5.6699 2.04039 5.565 2.12118 5.48072C2.20196 5.39645 2.30182 5.35431 2.42076 5.35431Z" fill="white"/>
</g>
</svg>
