<svg width="18" height="18" viewBox="0 0 18 18" fill="none" xmlns="http://www.w3.org/2000/svg">
<g id="solar:ticker-star-outline">
<path id="Vector" fill-rule="evenodd" clip-rule="evenodd" d="M7.45531 2.4375H10.5453C11.9261 2.4375 13.0203 2.4375 13.8753 2.55225C14.7566 2.67075 15.4691 2.91975 16.0316 3.48075C16.8671 4.31475 17.0216 5.496 17.0628 7.10625C17.0763 7.65825 16.6398 7.99725 16.2746 8.09325C16.0738 8.14562 15.8962 8.26308 15.7694 8.42723C15.6426 8.59138 15.5738 8.79295 15.5738 9.00037C15.5738 9.2078 15.6426 9.40937 15.7694 9.57352C15.8962 9.73767 16.0738 9.85513 16.2746 9.9075C16.6398 10.0027 17.0771 10.3417 17.0621 10.8937C17.0216 12.504 16.8671 13.6852 16.0316 14.5192C15.4691 15.0802 14.7566 15.3293 13.8761 15.4478C13.0203 15.5625 11.9261 15.5625 10.5461 15.5625H7.45531C6.07455 15.5625 4.98031 15.5625 4.12531 15.4478C3.24406 15.3293 2.53156 15.0802 1.96906 14.5192C1.13356 13.6852 0.979056 12.504 0.937806 10.8937C0.924306 10.3417 1.36081 10.0027 1.72606 9.90675C1.92676 9.85438 2.10443 9.73692 2.23124 9.57277C2.35806 9.40862 2.42685 9.20705 2.42685 8.99963C2.42685 8.7922 2.35806 8.59063 2.23124 8.42648C2.10443 8.26233 1.92676 8.14487 1.72606 8.0925C1.36081 7.99725 0.923556 7.659 0.938556 7.10625C0.979056 5.496 1.13356 4.31475 1.96906 3.48075C2.53156 2.91975 3.24406 2.67075 4.12456 2.55225C4.98106 2.4375 6.0753 2.4375 7.45531 2.4375ZM4.27456 3.6675C3.51856 3.76875 3.08206 3.95925 2.76406 4.2765C2.29306 4.74675 2.11306 5.4585 2.06656 7.02C2.49455 7.14541 2.87038 7.40612 3.13775 7.76308C3.40512 8.12003 3.54963 8.55401 3.54963 9C3.54963 9.44599 3.40512 9.87997 3.13775 10.2369C2.87038 10.5939 2.49455 10.8546 2.06656 10.98C2.11306 12.5415 2.29306 13.2525 2.76406 13.7235C3.08206 14.0408 3.51856 14.2313 4.27456 14.3325C5.04706 14.436 6.06481 14.4375 7.49731 14.4375H10.5033C11.9358 14.4375 12.9536 14.436 13.7261 14.3325C14.4828 14.2313 14.9186 14.0408 15.2366 13.7235C15.7076 13.2533 15.8876 12.5415 15.9341 10.98C15.5058 10.8548 15.1296 10.5942 14.8619 10.2373C14.5941 9.88031 14.4493 9.4462 14.4491 9C14.4491 8.061 15.0768 7.26975 15.9341 7.02C15.8876 5.4585 15.7076 4.7475 15.2366 4.2765C14.9186 3.95925 14.4821 3.76875 13.7261 3.6675C12.9536 3.564 11.9358 3.5625 10.5033 3.5625H7.49731C6.06481 3.5625 5.04706 3.564 4.27456 3.6675ZM9.00031 7.52625C8.95681 7.60125 8.90806 7.68825 8.85106 7.791L8.77756 7.923L8.76031 7.953C8.70181 8.061 8.60431 8.2395 8.44156 8.36325C8.27581 8.48925 8.07556 8.53275 7.95931 8.55825L7.92631 8.565L7.78381 8.59725C7.65181 8.62725 7.54456 8.65125 7.4538 8.6745C7.51306 8.74725 7.59031 8.83875 7.69081 8.95575L7.78831 9.0705L7.81081 9.096C7.89181 9.18975 8.02231 9.33975 8.08306 9.53475C8.14306 9.72675 8.12206 9.92475 8.10931 10.0493L8.10556 10.0845L8.09056 10.2368C8.07931 10.3517 8.06881 10.4667 8.05906 10.5817C8.13781 10.5472 8.22631 10.5068 8.33206 10.458L8.46631 10.3965L8.49631 10.3815C8.60431 10.3313 8.79106 10.2435 9.00031 10.2435C9.20956 10.2435 9.39631 10.3313 9.5043 10.3823L9.53431 10.3965L9.66856 10.458C9.77355 10.5068 9.86356 10.548 9.94156 10.5817C9.9318 10.4667 9.9213 10.3517 9.91006 10.2368L9.89506 10.0845C9.89384 10.0727 9.89259 10.061 9.8913 10.0493C9.87856 9.924 9.85756 9.72675 9.91755 9.53475C9.97756 9.33975 10.1088 9.18975 10.1898 9.096L10.2123 9.0705L10.3098 8.9565C10.4103 8.83875 10.4876 8.74725 10.5468 8.6745C10.4561 8.652 10.3488 8.62725 10.2168 8.59725L10.0743 8.565L10.0421 8.5575C9.92506 8.53275 9.7248 8.48925 9.55906 8.3625C9.39631 8.2395 9.29881 8.061 9.2403 7.95375C9.2346 7.94347 9.22885 7.93323 9.22305 7.923L9.14956 7.791C9.09256 7.68825 9.04456 7.602 9.00031 7.52625ZM8.26081 6.6C8.38981 6.43125 8.62381 6.1875 9.00031 6.1875C9.37681 6.1875 9.61081 6.43125 9.73981 6.6C9.86356 6.7605 9.98731 6.98325 10.1148 7.212L10.1321 7.24275L10.2056 7.3755L10.2483 7.4505L10.3226 7.46775L10.4651 7.5L10.5011 7.5075C10.7463 7.56375 10.9908 7.6185 11.1783 7.69275C11.3853 7.7745 11.6658 7.93275 11.7746 8.2815C11.8811 8.62275 11.7468 8.91225 11.6298 9.099C11.5211 9.2715 11.3561 9.4635 11.1873 9.66075L11.1648 9.687L11.0673 9.80175L11.0058 9.8745L11.0148 9.97575L11.0298 10.128L11.0328 10.1625C11.0583 10.4265 11.0831 10.6815 11.0741 10.8855C11.0651 11.1 11.0141 11.424 10.7231 11.6437C10.4231 11.8717 10.0931 11.8223 9.88306 11.7615C9.68956 11.7067 9.46156 11.601 9.23056 11.4952L9.19831 11.4803L9.0633 11.418L9.00031 11.3888L8.93656 11.4188L8.80231 11.4803L8.76931 11.4952C8.53981 11.601 8.31181 11.7067 8.11756 11.7615C7.90756 11.8215 7.57756 11.8717 7.27756 11.6437C6.98731 11.424 6.93555 11.1 6.92656 10.8863C6.91756 10.6815 6.94156 10.4265 6.96781 10.1625L6.97081 10.128L6.98581 9.97575C6.98929 9.94202 6.99254 9.90827 6.99555 9.8745C6.97497 9.85011 6.95422 9.82586 6.93331 9.80175L6.83581 9.687C6.8283 9.67825 6.8208 9.6695 6.8133 9.66075C6.64456 9.4635 6.47956 9.27075 6.37081 9.09825C6.25381 8.91225 6.11955 8.62275 6.22606 8.28075C6.33405 7.9335 6.61531 7.7745 6.82231 7.69275C7.00981 7.6185 7.2543 7.56375 7.49956 7.50825L7.53481 7.50075L7.67806 7.46775L7.75306 7.4505L7.79506 7.3755L7.86856 7.24275L7.88581 7.212C8.01331 6.98325 8.13706 6.7605 8.26081 6.6Z" fill="#314559"/>
</g>
</svg>
