<svg width="20" height="20" viewBox="0 0 20 20" fill="none" xmlns="http://www.w3.org/2000/svg">
<g id="Arrow up 1">
<path id="Vector" d="M6.5 14.5V16.5H2.5L2.5 14.5" stroke="#516BC5" stroke-miterlimit="10" stroke-linecap="round" stroke-linejoin="round"/>
<path id="Vector_2" d="M17.5 14.5V16.5H13.5V14.5" stroke="#516BC5" stroke-miterlimit="10" stroke-linecap="round" stroke-linejoin="round"/>
<path id="Vector_3" d="M17.5 9.5L2.5 9.5L2.5 14.5L17.5 14.5V9.5Z" stroke="#516BC5" stroke-miterlimit="10" stroke-linecap="round" stroke-linejoin="round"/>
<path id="Vector_4" d="M5 13C5.55228 13 6 12.5523 6 12C6 11.4477 5.55228 11 5 11C4.44772 11 4 11.4477 4 12C4 12.5523 4.44772 13 5 13Z" fill="#516BC5"/>
<path id="Vector_5" d="M15 13C15.5523 13 16 12.5523 16 12C16 11.4477 15.5523 11 15 11C14.4477 11 14 11.4477 14 12C14 12.5523 14.4477 13 15 13Z" fill="#516BC5"/>
<path id="Vector_6" d="M2.5 9.5L4.272 4.184C4.408 3.775 4.79 3.5 5.221 3.5L14.779 3.5C15.209 3.5 15.592 3.775 15.728 4.184L17.5 9.5" stroke="#516BC5" stroke-miterlimit="10" stroke-linecap="round" stroke-linejoin="round"/>
</g>
</svg>
