<svg width="24" height="24" viewBox="0 0 24 24" fill="none" xmlns="http://www.w3.org/2000/svg">
<g id="mdi:user-tick-outline">
<path id="Vector" d="M20.6359 12.2424L22 13.6097L15.6374 20L12.2564 16.6061L13.6205 15.2388L15.6374 17.2558L20.6359 12.2424ZM10.7949 4C11.8285 4 12.8199 4.40866 13.5508 5.13607C14.2817 5.86348 14.6923 6.85007 14.6923 7.87879C14.6923 8.90751 14.2817 9.89409 13.5508 10.6215C12.8199 11.3489 11.8285 11.7576 10.7949 11.7576C9.76121 11.7576 8.76988 11.3489 8.03897 10.6215C7.30806 9.89409 6.89744 8.90751 6.89744 7.87879C6.89744 6.85007 7.30806 5.86348 8.03897 5.13607C8.76988 4.40866 9.76121 4 10.7949 4ZM10.7949 5.93939C10.278 5.93939 9.78238 6.14372 9.41692 6.50743C9.05147 6.87114 8.84615 7.36443 8.84615 7.87879C8.84615 8.39315 9.05147 8.88644 9.41692 9.25015C9.78238 9.61385 10.278 9.81818 10.7949 9.81818C11.3117 9.81818 11.8074 9.61385 12.1728 9.25015C12.5383 8.88644 12.7436 8.39315 12.7436 7.87879C12.7436 7.36443 12.5383 6.87114 12.1728 6.50743C11.8074 6.14372 11.3117 5.93939 10.7949 5.93939ZM10.7949 12.7273C11.4574 12.7273 12.2564 12.8145 13.1431 12.9794L11.5159 14.5988L10.7949 14.5697C7.90103 14.5697 4.85128 15.9855 4.85128 16.6061V17.6727H10.8923L12.7436 19.5152H3V16.6061C3 14.0267 8.19333 12.7273 10.7949 12.7273Z" fill="white"/>
</g>
</svg>
