<svg width="24" height="24" viewBox="0 0 24 24" fill="none" xmlns="http://www.w3.org/2000/svg">
<g id="mingcute:user-x-line">
<g id="Group">
<path id="Vector" fill-rule="evenodd" clip-rule="evenodd" d="M11.166 5.33427C10.8377 5.33427 10.5126 5.39893 10.2093 5.52457C9.90599 5.65021 9.63039 5.83436 9.39825 6.0665C9.1661 6.29865 8.98195 6.57425 8.85632 6.87756C8.73068 7.18087 8.66602 7.50596 8.66602 7.83427C8.66602 8.16257 8.73068 8.48766 8.85632 8.79098C8.98195 9.09429 9.1661 9.36989 9.39825 9.60204C9.63039 9.83418 9.90599 10.0183 10.2093 10.144C10.5126 10.2696 10.8377 10.3343 11.166 10.3343C11.8291 10.3343 12.4649 10.0709 12.9338 9.60204C13.4026 9.13319 13.666 8.49731 13.666 7.83427C13.666 7.17123 13.4026 6.53534 12.9338 6.0665C12.4649 5.59766 11.8291 5.33427 11.166 5.33427ZM6.99935 7.83427C6.99935 6.7292 7.43834 5.66939 8.21974 4.88799C9.00114 4.10659 10.0609 3.6676 11.166 3.6676C12.2711 3.6676 13.3309 4.10659 14.1123 4.88799C14.8937 5.66939 15.3327 6.7292 15.3327 7.83427C15.3327 8.93934 14.8937 9.99915 14.1123 10.7805C13.3309 11.5619 12.2711 12.0009 11.166 12.0009C10.0609 12.0009 9.00114 11.5619 8.21974 10.7805C7.43834 9.99915 6.99935 8.93934 6.99935 7.83427ZM5.67685 16.6684C5.40768 17.0101 5.33268 17.2684 5.33268 17.4176C5.33268 17.5193 5.36352 17.6268 5.54518 17.7726C5.75268 17.9393 6.11352 18.1118 6.66518 18.2576C7.76352 18.5493 9.34185 18.6676 11.166 18.6676C11.351 18.6676 11.5335 18.6659 11.7143 18.6634C11.9354 18.6604 12.1485 18.7454 12.3069 18.8996C12.4653 19.0537 12.5559 19.2645 12.5589 19.4855C12.5619 19.7065 12.477 19.9197 12.3228 20.0781C12.1686 20.2365 11.9579 20.3271 11.7368 20.3301C11.5485 20.3326 11.3577 20.3343 11.166 20.3343C9.30852 20.3343 7.55352 20.2176 6.23852 19.8693C5.58435 19.6959 4.96852 19.4476 4.50185 19.0726C4.00768 18.6759 3.66602 18.1218 3.66602 17.4176C3.66602 16.7618 3.96435 16.1484 4.36935 15.6351C4.78102 15.1143 5.35018 14.6351 6.01768 14.2268C7.35352 13.4134 9.17018 12.8343 11.166 12.8343C11.5385 12.8343 11.9052 12.8543 12.2627 12.8926C12.4825 12.9159 12.684 13.0256 12.8229 13.1975C12.9619 13.3694 13.0268 13.5895 13.0035 13.8093C12.9802 14.0291 12.8705 14.2306 12.6986 14.3695C12.5267 14.5085 12.3066 14.5734 12.0868 14.5501C11.7868 14.5176 11.4785 14.5009 11.166 14.5009C9.48018 14.5009 7.96352 14.9926 6.88602 15.6501C6.34685 15.9784 5.93935 16.3351 5.67685 16.6684ZM15.821 14.6434C15.6646 14.4872 15.4526 14.3994 15.2316 14.3995C15.0105 14.3996 14.7985 14.4875 14.6423 14.6439C14.486 14.8002 14.3983 15.0123 14.3983 15.2333C14.3984 15.4544 14.4863 15.6663 14.6427 15.8226L15.821 17.0009L14.6427 18.1793C14.5631 18.2561 14.4996 18.3481 14.4559 18.4498C14.4123 18.5514 14.3893 18.6608 14.3883 18.7714C14.3873 18.8821 14.4084 18.9918 14.4503 19.0942C14.4922 19.1966 14.5541 19.2897 14.6324 19.3679C14.7106 19.4462 14.8036 19.5081 14.9061 19.55C15.0085 19.5919 15.1182 19.6129 15.2289 19.612C15.3395 19.611 15.4488 19.588 15.5505 19.5444C15.6522 19.5007 15.7441 19.4372 15.821 19.3576L16.9993 18.1793L18.1777 19.3576C18.2546 19.4372 18.3465 19.5007 18.4482 19.5444C18.5498 19.588 18.6592 19.611 18.7698 19.612C18.8805 19.6129 18.9902 19.5919 19.0926 19.55C19.1951 19.5081 19.2881 19.4462 19.3663 19.3679C19.4446 19.2897 19.5065 19.1966 19.5484 19.0942C19.5903 18.9918 19.6114 18.8821 19.6104 18.7714C19.6094 18.6608 19.5864 18.5514 19.5428 18.4498C19.4991 18.3481 19.4356 18.2561 19.356 18.1793L18.1777 17.0009L19.356 15.8226C19.5078 15.6654 19.5918 15.4549 19.5899 15.2364C19.588 15.0179 19.5004 14.8089 19.3459 14.6544C19.1914 14.4999 18.9823 14.4123 18.7639 14.4104C18.5454 14.4085 18.3349 14.4925 18.1777 14.6443L16.9993 15.8226L15.821 14.6434Z" fill="white"/>
</g>
</g>
</svg>
